<?xml version="1.0" standalone="no"?>
<!DOCTYPE svg PUBLIC "-//W3C//DTD SVG 20010904//EN"
 "http://www.w3.org/TR/2001/REC-SVG-20010904/DTD/svg10.dtd">
<svg version="1.0" xmlns="http://www.w3.org/2000/svg"
 width="829.000000pt" height="829.000000pt" viewBox="0 0 829.000000 829.000000"
 preserveAspectRatio="xMidYMid meet">
<metadata>
Created by potrace 1.11, written by Peter Selinger 2001-2013
</metadata>
<g transform="translate(0.000000,829.000000) scale(0.100000,-0.100000)"
fill="#000000" stroke="none">
<path d="M4858 8008 c-29 -45 -59 -141 -64 -211 -11 -128 25 -248 102 -343 81
-99 97 -130 97 -187 -1 -30 -10 -75 -23 -107 -73 -180 -66 -323 25 -475 54
-89 131 -162 322 -306 95 -71 181 -142 192 -157 18 -26 18 -31 5 -82 -35 -131
29 -298 165 -429 31 -29 109 -91 173 -137 175 -126 207 -176 172 -263 -13 -33
-54 -76 -193 -200 -97 -87 -198 -182 -225 -211 l-49 -52 7 -82 c3 -44 6 -162
6 -261 l1 -180 40 99 c57 142 122 247 216 346 69 73 103 99 223 170 156 92
227 150 266 217 68 115 83 264 38 388 -61 172 -32 289 94 384 66 50 136 76
282 106 174 36 236 64 280 124 31 45 38 78 45 209 7 140 17 178 50 186 14 3
29 15 35 26 7 13 21 20 40 20 16 0 32 5 35 10 7 11 -84 127 -176 224 l-55 59
-80 -58 c-134 -98 -157 -137 -180 -306 -8 -62 -23 -131 -34 -155 -21 -50 -21
-50 -177 -37 l-83 6 0 63 c0 94 -16 158 -68 267 -45 96 -45 98 -30 131 9 18
43 55 75 82 91 77 134 124 155 171 21 47 34 171 21 189 -21 28 -310 230 -318
222 -2 -2 0 -35 5 -73 5 -39 9 -116 10 -171 0 -114 5 -104 -99 -214 -34 -36
-76 -94 -94 -130 -27 -55 -32 -75 -32 -135 0 -61 6 -81 43 -162 41 -87 71
-196 72 -256 0 -24 -7 -31 -56 -52 -78 -35 -174 -105 -224 -165 -23 -27 -46
-50 -51 -50 -5 0 -17 19 -26 43 -36 90 -115 238 -160 297 -28 38 -92 99 -162
154 -129 103 -175 150 -202 210 -23 51 -24 138 -3 241 9 45 15 108 12 150 -4
85 -22 116 -107 186 -135 110 -170 284 -110 540 11 49 18 93 15 96 -5 5 -199
52 -217 53 -4 0 -13 -10 -21 -22z"/>
<path d="M2970 7913 c-14 -3 -29 -8 -35 -13 -5 -4 -37 -15 -70 -24 -99 -28
-167 -58 -161 -71 2 -7 10 -77 16 -154 25 -301 -27 -595 -128 -730 -32 -43
-161 -104 -200 -95 -90 22 -281 160 -472 340 -60 57 -115 104 -121 104 -6 0
-23 -8 -37 -19 -15 -10 -63 -37 -107 -60 -44 -23 -100 -59 -124 -80 l-43 -38
33 -25 c19 -14 156 -109 304 -211 300 -207 405 -288 512 -394 93 -94 175 -208
167 -237 -3 -13 26 -97 77 -221 98 -242 179 -482 219 -648 30 -126 60 -294 54
-300 -2 -2 -34 4 -72 14 -222 56 -427 51 -742 -21 -247 -56 -370 -51 -520 22
-88 43 -195 153 -289 296 -41 61 -77 112 -81 112 -57 0 -15 -237 66 -376 63
-107 195 -221 302 -260 26 -9 52 -24 59 -31 18 -23 -19 -141 -89 -281 -36 -72
-57 -127 -52 -132 13 -13 116 -50 124 -45 4 2 31 52 60 111 66 134 137 210
223 242 61 23 254 46 342 40 l50 -3 -55 -32 c-30 -18 -58 -34 -62 -35 -5 -2 2
-23 15 -48 14 -29 22 -63 22 -97 0 -65 -27 -96 -103 -120 -33 -11 -63 -28 -78
-46 -22 -27 -24 -36 -24 -151 0 -111 -2 -127 -25 -173 -14 -28 -37 -59 -51
-67 -23 -16 -23 -18 -10 -44 8 -15 44 -56 80 -92 l66 -64 0 -196 0 -195 -178
0 c-97 -1 -195 -4 -217 -9 -36 -7 -38 -9 -20 -19 14 -8 90 -12 235 -12 210 0
289 7 261 24 -9 6 5 13 39 21 28 7 54 18 57 26 3 7 -4 29 -16 47 -20 33 -41
160 -41 256 0 50 28 89 93 131 57 36 149 138 178 197 21 42 24 62 24 163 0
107 -2 119 -29 174 -20 41 -25 61 -17 64 6 2 33 18 59 36 50 35 82 84 82 129
0 38 -33 100 -67 127 l-28 21 109 -6 c105 -6 208 -21 295 -45 l41 -11 -6 -67
c-6 -75 -52 -405 -61 -439 -4 -19 -12 -23 -42 -23 -60 0 -63 6 -55 101 l6 85
-42 69 c-23 39 -44 72 -46 74 -2 2 -37 -27 -79 -64 l-75 -67 0 -309 c0 -269
-2 -309 -15 -309 -12 0 -14 -8 -10 -37 3 -21 10 -81 15 -133 6 -52 13 -97 16
-100 3 -3 61 -7 129 -8 118 -4 123 -5 123 -25 0 -12 7 -57 17 -100 9 -43 15
-81 12 -84 -8 -8 -142 -22 -214 -23 l-63 0 0 114 c0 118 -10 147 -37 111 -10
-15 -13 -73 -13 -255 l0 -236 33 -12 c39 -14 205 -16 262 -2 22 5 41 7 43 5 2
-2 0 -44 -3 -93 l-7 -90 -59 -19 c-32 -10 -59 -21 -59 -24 0 -3 6 -13 13 -23
12 -16 16 -16 56 -2 l43 14 -7 -61 c-8 -74 -10 -77 -41 -77 -19 0 -24 -5 -24
-25 0 -20 5 -25 25 -25 24 0 25 -3 25 -55 0 -42 -5 -59 -21 -74 -22 -20 -22
-58 0 -53 10 2 12 -5 7 -29 -3 -17 -6 -46 -6 -64 0 -46 -32 -57 -154 -53 -84
3 -96 5 -96 21 0 11 -8 17 -25 17 l-25 0 0 -207 c0 -202 0 -206 19 -189 10 9
22 37 26 62 l6 44 62 0 c85 0 107 7 107 35 0 21 -3 22 -82 21 l-83 -1 -3 73
c-2 39 1 72 5 73 56 6 237 2 243 -6 16 -20 20 -82 11 -180 -5 -56 -5 -107 0
-115 7 -13 8 -13 9 0 2 78 28 393 61 760 28 303 39 470 35 524 l-6 80 50 -77
c28 -41 84 -111 125 -155 l75 -80 -21 -48 c-52 -121 -73 -274 -46 -338 11 -25
12 -14 9 75 -3 88 -1 113 18 162 59 157 186 226 323 173 52 -20 94 -62 128
-130 21 -42 21 -48 7 -62 -24 -24 -54 -9 -72 35 -17 45 -53 73 -114 92 -39 11
-45 11 -70 -8 -15 -11 -40 -46 -57 -78 -24 -47 -31 -74 -34 -136 -6 -142 38
-194 202 -239 85 -23 113 -20 163 19 29 23 54 18 54 -12 0 -27 -81 -104 -134
-128 -22 -10 -62 -19 -88 -19 -60 0 -160 31 -203 64 -39 30 -45 31 -45 12 0
-8 -36 -84 -79 -169 -44 -85 -82 -172 -86 -193 -3 -22 -9 -51 -11 -66 -5 -25
-3 -28 23 -28 54 0 102 -20 131 -56 31 -38 62 -119 62 -163 0 -53 -15 -60
-129 -63 l-105 -3 -13 -50 c-7 -27 -13 -53 -13 -57 0 -11 63 -45 103 -56 38
-11 40 -10 83 33 51 51 72 51 72 -3 0 -28 -7 -43 -32 -67 -29 -27 -39 -30
-107 -32 -58 -2 -84 2 -113 17 l-38 19 -12 -32 c-8 -18 -18 -45 -23 -61 -8
-26 -11 -18 -27 75 -10 57 -24 131 -32 164 -8 33 -14 97 -14 143 0 55 -4 82
-12 82 -8 0 -9 -39 -5 -150 6 -133 5 -152 -10 -170 -19 -21 -53 -27 -53 -9 0
6 -15 1 -33 -10 -43 -26 -104 -36 -151 -22 l-38 10 6 -57 c4 -31 13 -80 20
-109 l14 -51 -87 -12 c-308 -42 -521 -110 -521 -166 0 -24 62 -64 138 -88 333
-104 1145 -167 2157 -168 1149 0 2033 80 2260 205 33 18 40 28 40 52 0 26 -7
33 -55 58 -67 33 -206 68 -368 93 l-121 18 -10 43 c-15 58 -14 118 5 258 17
127 14 240 -7 332 l-12 53 -158 0 c-94 0 -160 -4 -164 -10 -9 -14 -42 -12 -75
5 l-29 15 15 -36 c22 -52 29 -160 15 -239 -28 -160 -120 -255 -263 -272 -42
-5 -57 -12 -81 -40 -34 -38 -42 -36 -51 11 -5 25 -14 37 -36 46 -75 31 -128
91 -154 176 -8 27 -15 44 -15 37 -2 -21 -53 -74 -93 -94 -51 -26 -141 -41
-174 -29 l-24 10 6 -70 c6 -61 5 -70 -11 -76 -39 -15 -45 18 -45 230 0 151 -4
208 -14 227 -21 41 -9 74 36 104 60 40 113 55 189 55 62 0 72 -3 103 -30 l35
-31 -6 76 c-5 64 -1 93 27 200 18 69 31 128 28 130 -3 3 -17 1 -32 -5 -68 -26
-192 -2 -264 50 l-41 29 -16 -57 c-31 -114 -67 -202 -111 -273 l-45 -72 19
-46 c26 -60 46 -147 38 -166 -10 -28 -36 -15 -67 35 -17 27 -35 50 -40 50 -5
0 -9 -1 -9 -2 0 -2 -7 -41 -15 -88 -20 -114 -19 -146 7 -183 14 -20 23 -50 26
-86 4 -53 2 -58 -32 -90 -27 -27 -45 -35 -83 -38 -59 -5 -120 22 -115 50 2 10
-2 25 -8 32 -7 8 -9 19 -5 25 11 17 41 11 65 -14 18 -20 29 -24 54 -19 65 12
68 17 47 72 -10 26 -31 68 -48 92 -103 149 -126 300 -62 391 20 27 20 34 9 71
-6 23 -28 72 -47 109 -30 57 -43 72 -89 98 -91 51 -134 136 -134 266 0 99 22
162 81 236 51 64 67 74 209 121 l35 11 -36 6 c-28 4 -48 19 -90 65 -92 101
-90 95 -23 95 l59 0 48 -80 c27 -44 52 -80 56 -80 5 0 29 18 54 40 68 61 82
105 72 238 -11 138 -12 213 -3 235 6 14 21 17 103 17 95 0 96 0 89 -22 -31
-97 -31 -181 -2 -360 l22 -137 30 18 c66 41 140 46 218 16 12 -5 16 10 21 92
6 97 57 323 78 349 6 7 8 18 4 24 -4 6 4 10 19 10 13 0 26 3 28 8 2 4 48 28
102 54 l100 46 19 -71 c10 -40 25 -101 32 -137 8 -36 39 -115 70 -176 60 -120
65 -150 38 -229 -14 -41 -14 -50 -2 -53 25 -9 77 -71 84 -102 l7 -30 44 44
c24 25 70 57 102 72 31 15 58 29 60 30 2 1 -7 28 -19 60 -74 203 -118 404
-104 483 5 32 2 43 -21 70 -15 18 -33 54 -40 79 -7 26 -15 54 -18 62 -4 11 33
33 157 90 l162 76 1 354 0 355 -34 69 c-18 38 -37 65 -42 60 -4 -5 -18 -40
-31 -79 -17 -54 -24 -103 -28 -210 l-6 -140 -55 -22 -55 -22 -5 132 -5 132
-42 69 c-40 66 -43 69 -51 45 -5 -13 -22 -58 -38 -99 -24 -65 -29 -94 -33
-214 l-6 -139 -65 -27 -66 -27 4 127 4 126 -62 82 c-35 45 -64 81 -65 80 -1
-2 -26 -55 -54 -119 -51 -117 -51 -117 -51 -223 l0 -107 -62 5 c-35 3 -101 8
-147 12 l-83 6 7 138 7 138 -42 71 c-23 39 -44 71 -47 71 -2 0 -38 -30 -79
-67 l-74 -66 0 -134 c0 -148 5 -139 -71 -127 l-36 6 -7 169 c-18 463 -82 757
-192 878 -48 54 -82 71 -139 71 -56 0 -92 -18 -135 -67 -85 -97 -144 -303
-175 -618 -7 -68 -7 -69 -22 -42 -8 16 -18 27 -23 25 -5 -2 -41 -31 -80 -66
l-70 -63 0 -110 0 -109 -32 1 c-18 0 -94 6 -168 12 l-135 12 4 102 3 103 -42
71 -42 70 -25 -16 -26 -17 7 43 c13 90 26 216 26 260 l0 45 78 -12 c42 -7 78
-11 79 -10 1 1 6 64 12 139 l10 138 230 237 c126 130 296 303 378 384 l148
147 468 -464 468 -464 242 113 c133 63 289 136 347 163 58 28 142 67 188 88
45 21 82 41 82 45 0 4 -134 128 -297 276 -164 148 -346 314 -406 369 -60 55
-136 124 -168 153 l-59 54 -98 -30 c-53 -17 -261 -81 -462 -142 l-365 -112
-443 -441 c-337 -335 -446 -438 -452 -427 -4 8 -31 112 -58 230 -133 564 -203
886 -218 1004 -25 200 -13 306 115 1026 60 338 111 629 113 645 3 26 0 30 -22
31 -14 1 -36 0 -50 -3z m2690 -3924 l0 -50 -62 -29 c-35 -15 -64 -27 -65 -26
-1 1 1 27 4 57 5 54 7 57 47 77 67 34 76 30 76 -29z m-2884 9 c-4 -13 -14 -80
-23 -150 l-17 -128 -28 0 c-26 0 -28 2 -28 43 0 24 3 92 7 150 l6 107 45 0
c41 0 44 -2 38 -22z m757 -37 c4 -1 7 -62 7 -137 l0 -136 -147 7 c-82 3 -163
8 -181 11 l-32 5 6 127 c3 70 7 132 9 137 2 9 107 5 338 -14z m1837 -95 c0
-42 -4 -66 -12 -69 -7 -3 -39 -17 -71 -31 l-58 -26 3 72 3 72 55 22 c81 32 80
33 80 -40z m-917 28 l37 -7 0 -113 0 -114 -61 0 -61 0 6 31 c3 17 6 71 6 120
0 99 -3 95 73 83z m457 -35 l100 -12 0 -102 0 -101 -67 1 c-38 0 -108 2 -158
3 l-90 2 6 97 c4 54 7 104 8 111 1 15 67 16 201 1z m-1943 -116 c-2 -21 -4 -6
-4 32 0 39 2 55 4 38 2 -18 2 -50 0 -70z m297 -314 c8 -8 -56 -209 -66 -209
-19 0 -128 114 -148 154 -33 69 -34 69 94 65 63 -2 117 -7 120 -10z m690 -15
l228 -6 -7 -72 c-18 -191 -106 -301 -261 -327 l-74 -13 30 -29 c36 -36 50 -81
50 -170 0 -51 -4 -69 -15 -73 -26 -10 -45 16 -45 62 0 89 -38 131 -103 113
-20 -5 -50 -21 -66 -35 l-30 -25 6 -278 c6 -277 6 -279 -15 -290 -18 -10 -24
-8 -39 16 -10 16 -21 30 -25 33 -27 20 -33 373 -10 545 6 45 10 50 40 59 17 5
32 12 32 16 0 21 -95 100 -158 130 -39 19 -72 38 -72 43 0 12 107 247 129 283
19 31 19 31 97 27 44 -1 182 -6 308 -9z m-1180 -240 c3 -9 6 -51 6 -94 l0 -78
-63 -11 c-35 -6 -103 -11 -150 -11 l-87 0 0 95 0 95 73 1 c39 1 97 4 127 9 84
11 87 11 94 -6z m714 -1096 c8 -8 12 -61 12 -175 l0 -162 43 -52 c23 -29 86
-90 140 -137 96 -82 98 -83 82 -46 -26 61 -32 192 -10 238 20 41 109 111 157
121 51 12 116 -4 153 -36 58 -51 94 -180 62 -223 -11 -16 -29 -17 -170 -14
-86 2 -157 1 -157 -3 0 -3 13 -25 28 -50 35 -55 90 -97 149 -115 l44 -13 45
45 c52 54 71 53 72 -5 1 -33 -5 -45 -32 -69 -32 -27 -38 -29 -117 -28 l-84 1
4 -42 3 -43 -124 0 c-69 0 -206 -3 -306 -7 l-180 -6 -16 53 c-32 107 -19 177
64 352 65 139 94 243 88 322 -4 43 -1 68 10 84 16 25 23 27 40 10z m254 -28
c10 -20 18 -57 18 -86 0 -41 -5 -57 -25 -78 -14 -15 -31 -26 -38 -23 -18 6
-20 42 -2 57 19 16 19 73 -1 111 -8 17 -13 37 -10 46 10 24 40 10 58 -27z
m1900 -212 c13 -11 17 -49 22 -219 7 -237 3 -271 -28 -267 -20 3 -21 9 -27
193 -4 105 -10 209 -14 233 -10 59 12 87 47 60z m-2917 -468 c4 -16 4 -34 1
-39 -10 -16 -99 -42 -167 -48 l-66 -6 -7 43 c-4 23 -5 44 -4 46 2 1 48 7 102
13 55 7 102 14 105 16 13 14 30 2 36 -25z m27 -124 c5 -22 1 -24 -51 -30 -182
-19 -191 -19 -191 -4 0 11 16 17 63 21 35 3 85 14 113 25 56 22 60 21 66 -12z"/>
<path d="M3905 1795 c-56 -15 -89 -47 -104 -102 -6 -20 -9 -38 -8 -39 1 -1 66
-4 145 -6 l142 -4 -1 25 c0 45 -33 115 -59 128 -31 16 -51 15 -115 -2z"/>
<path d="M7818 5351 c-86 -62 -170 -185 -197 -289 -6 -23 -16 -60 -21 -82 -8
-30 -21 -46 -49 -65 -69 -43 -103 -157 -72 -238 15 -38 16 -36 -34 -58 -95
-42 -133 -165 -81 -262 34 -63 33 -77 -10 -111 -92 -73 -85 -203 20 -339 20
-26 36 -51 36 -57 0 -5 -13 -24 -29 -42 -114 -131 -63 -300 141 -464 l36 -29
-81 -281 -80 -281 -256 -6 c-247 -5 -301 -10 -301 -27 0 -18 149 -25 478 -24
227 0 346 4 353 11 11 11 13 298 3 340 -7 25 51 93 119 139 52 35 59 45 46 61
-8 9 -4 14 18 19 72 17 146 75 162 128 12 37 46 238 61 356 58 479 0 1034
-161 1543 -17 53 -35 97 -39 97 -4 0 -31 -18 -62 -39z m-52 -2088 l47 -6 -39
-20 c-21 -11 -54 -31 -71 -45 l-33 -24 0 57 c0 56 1 57 25 51 14 -4 46 -9 71
-13z"/>
<path d="M6616 4895 c-95 -34 -172 -145 -183 -264 -5 -52 -8 -61 -22 -55 -9 4
-37 12 -63 17 -94 21 -148 -34 -168 -173 -6 -46 -7 -94 0 -139 11 -79 13 -84
53 -174 l30 -68 -26 -27 c-65 -68 -82 -164 -46 -262 65 -179 62 -164 45 -224
-9 -30 -16 -67 -16 -83 0 -56 48 -130 137 -211 46 -42 92 -90 100 -107 9 -16
30 -48 48 -70 40 -50 47 -76 52 -200 l4 -100 -318 0 c-216 0 -324 -4 -337 -11
-18 -11 -18 -12 2 -32 17 -17 38 -21 155 -27 166 -9 550 0 595 14 69 21 74 42
43 173 l-18 78 51 23 c60 28 142 101 219 194 96 119 109 161 93 303 -7 53 -4
80 14 145 39 140 42 159 37 227 -6 73 -33 136 -78 183 l-28 30 34 85 c61 152
66 251 15 349 -22 45 -80 98 -116 107 -24 6 -25 9 -19 58 22 173 -128 299
-289 241z m461 -1107 c-3 -7 -5 -2 -5 12 0 14 2 19 5 13 2 -7 2 -19 0 -25z"/>
<path d="M843 4720 c-121 -28 -309 -261 -342 -422 -23 -110 28 -230 113 -269
22 -10 56 -19 75 -19 28 0 32 -3 26 -17 -5 -10 -10 -46 -13 -81 -4 -59 -2 -67
32 -121 35 -58 36 -60 21 -95 -8 -19 -15 -64 -15 -100 0 -59 2 -66 30 -89 17
-15 54 -31 87 -38 123 -25 117 -22 125 -64 19 -89 75 -100 157 -30 43 36 60
45 91 45 39 0 39 0 45 -47 18 -133 58 -386 71 -446 24 -115 24 -114 -43 -106
-173 22 -826 22 -861 0 -9 -5 -9 -15 0 -38 l12 -31 135 -7 c151 -9 647 1 729
13 47 8 52 7 52 -10 0 -11 7 -18 20 -18 31 0 140 34 140 43 0 5 -20 73 -45
150 -44 139 -105 362 -105 382 0 6 9 -1 20 -15 17 -22 19 -23 26 -7 3 10 19
24 35 32 35 19 47 59 55 190 l7 100 45 29 c54 36 99 103 108 165 5 33 16 54
38 75 l31 30 -65 9 c-80 10 -140 37 -179 82 -29 34 -31 34 -83 25 -29 -4 -64
-13 -78 -18 -136 -52 -351 6 -458 123 -94 102 -120 245 -66 354 26 51 81 102
132 122 19 7 21 12 12 28 -5 11 -10 33 -10 50 0 22 -6 31 -22 36 -42 12 -53
13 -85 5z m422 -1271 c5 -5 -6 -9 -29 -9 -20 0 -46 -5 -56 -10 -16 -9 -18 -8
-13 6 12 31 70 39 98 13z"/>
<path d="M2420 2641 c0 -223 1 -231 20 -231 16 0 21 9 26 50 l7 50 54 0 c51 0
54 2 51 23 -3 19 -10 22 -55 25 l-53 3 0 66 0 66 45 -6 c35 -5 45 -3 45 7 0
24 -30 46 -60 46 -29 0 -29 1 -32 63 -3 56 -5 62 -25 65 l-23 3 0 -230z"/>
<path d="M4726 2826 c-100 -106 -102 -317 -4 -383 41 -27 205 -75 230 -67 40
12 15 294 -34 393 -24 47 -64 75 -126 87 -28 6 -37 2 -66 -30z"/>
<path d="M5340 2776 c0 -2 7 -7 16 -10 8 -3 12 -2 9 4 -6 10 -25 14 -25 6z"/>
<path d="M5630 2744 c-60 -26 -90 -64 -105 -131 l-7 -33 54 0 54 0 27 65 c26
63 35 115 20 115 -5 -1 -24 -8 -43 -16z"/>
<path d="M5301 2697 c-22 -57 -33 -152 -29 -240 4 -76 14 -118 56 -242 28 -82
54 -166 57 -186 4 -20 15 -49 26 -65 l19 -29 0 28 c0 68 63 129 133 131 30 0
47 7 60 22 9 13 37 30 62 40 25 9 45 20 45 23 0 18 -29 39 -69 50 -51 15 -139
97 -161 151 l-14 34 -12 -74 c-14 -83 -24 -96 -76 -105 -52 -10 -56 7 -22 97
23 60 28 90 28 168 1 82 -2 102 -24 144 -14 27 -35 56 -47 64 -21 13 -23 12
-32 -11z"/>
<path d="M5546 2478 c23 -45 64 -97 83 -108 15 -8 16 -2 2 66 l-14 74 -44 0
-44 0 17 -32z"/>
<path d="M2557 2339 c7 -7 15 -10 18 -7 3 3 -2 9 -12 12 -14 6 -15 5 -6 -5z"/>
<path d="M2438 2303 c7 -3 16 -2 19 1 4 3 -2 6 -13 5 -11 0 -14 -3 -6 -6z"/>
<path d="M5715 2112 c-27 -5 -75 -52 -75 -72 0 -19 -19 -40 -37 -40 -8 0 -18
11 -23 25 -9 24 -11 25 -42 12 -44 -18 -66 -57 -52 -94 7 -22 16 -28 37 -27
15 0 96 1 181 2 147 2 155 3 151 21 -7 36 -25 61 -45 61 -27 0 -44 34 -30 61
18 33 -16 61 -65 51z"/>
<path d="M4679 1856 c-19 -7 -46 -20 -60 -29 -24 -17 -24 -18 -20 -165 1 -81
8 -153 13 -159 13 -16 77 -17 115 -2 68 25 122 108 130 200 7 72 -3 125 -28
150 -23 23 -94 25 -150 5z"/>
<path d="M5400 1809 c0 -20 -3 -63 -6 -95 -5 -54 -4 -60 16 -72 l23 -14 -5 89
c-2 48 -9 97 -16 108 -10 18 -11 16 -12 -16z"/>
<path d="M2438 1767 c-26 -40 -28 -52 -28 -144 0 -135 6 -163 36 -163 22 0 23
3 17 45 l-6 45 65 0 c68 0 92 11 102 47 7 21 5 21 -26 12 -39 -11 -125 -12
-131 -1 -3 4 -8 42 -12 84 l-7 77 47 -15 c27 -8 68 -14 92 -14 40 0 43 2 43
28 0 26 -3 27 -47 28 -27 0 -64 4 -83 8 -33 7 -36 5 -62 -37z"/>
<path d="M2926 1802 c-2 -4 -8 -40 -11 -80 l-8 -72 44 0 c24 0 61 -3 82 -6 37
-7 37 -6 37 27 -1 50 -34 117 -65 129 -31 12 -72 13 -79 2z"/>
<path d="M4251 1794 c0 -11 3 -14 6 -6 3 7 2 16 -1 19 -3 4 -6 -2 -5 -13z"/>
<path d="M4262 1750 c0 -14 2 -19 5 -12 2 6 2 18 0 25 -3 6 -5 1 -5 -13z"/>
<path d="M4966 1560 c15 -55 64 -130 85 -130 15 0 -23 76 -57 115 -30 34 -34
36 -28 15z"/>
<path d="M5389 1539 c-6 -13 -32 -44 -57 -71 -24 -26 -41 -48 -37 -48 20 0 77
55 96 92 21 41 20 67 -2 27z"/>
</g>
</svg>
